<svg xmlns="http://www.w3.org/2000/svg" viewBox="0 0 32 32">
  <!-- Background circle -->
  <circle cx="16" cy="16" r="15" fill="#3b82f6" opacity="0.1"/>
  
  <!-- Icon grid representation -->
  <g stroke="#3b82f6" stroke-width="1.5" fill="none" stroke-linecap="round" stroke-linejoin="round">
    <!-- Grid lines -->
    <line x1="8" y1="12" x2="24" y2="12"/>
    <line x1="8" y1="20" x2="24" y2="20"/>
    <line x1="12" y1="8" x2="12" y2="24"/>
    <line x1="20" y1="8" x2="20" y2="24"/>
    
    <!-- Icon representations (small squares) -->
    <rect x="9" y="9" width="2" height="2" fill="#3b82f6"/>
    <rect x="13" y="9" width="2" height="2" fill="#3b82f6"/>
    <rect x="17" y="9" width="2" height="2" fill="#3b82f6"/>
    <rect x="21" y="9" width="2" height="2" fill="#3b82f6"/>
    
    <rect x="9" y="13" width="2" height="2" fill="#3b82f6"/>
    <rect x="13" y="13" width="2" height="2" fill="#3b82f6"/>
    <rect x="17" y="13" width="2" height="2" fill="#3b82f6"/>
    <rect x="21" y="13" width="2" height="2" fill="#3b82f6"/>
    
    <rect x="9" y="17" width="2" height="2" fill="#3b82f6"/>
    <rect x="13" y="17" width="2" height="2" fill="#3b82f6"/>
    <rect x="17" y="17" width="2" height="2" fill="#3b82f6"/>
    <rect x="21" y="17" width="2" height="2" fill="#3b82f6"/>
    
    <rect x="9" y="21" width="2" height="2" fill="#3b82f6"/>
    <rect x="13" y="21" width="2" height="2" fill="#3b82f6"/>
    <rect x="17" y="21" width="2" height="2" fill="#3b82f6"/>
    <rect x="21" y="21" width="2" height="2" fill="#3b82f6"/>
  </g>
  
  <!-- Rust logo inspired accent -->
  <circle cx="16" cy="16" r="3" fill="#3b82f6" opacity="0.3"/>
</svg>
